<svg width="51" height="51" viewBox="0 0 51 51" fill="none" xmlns="http://www.w3.org/2000/svg">
<path d="M43.4137 12.24L26.4137 4.67501C26.1398 4.55186 25.8428 4.48819 25.5425 4.48819C25.2421 4.48819 24.9452 4.55186 24.6712 4.67501L7.67123 12.24C7.30167 12.4061 6.98729 12.6744 6.76516 13.0132C6.54302 13.3521 6.42239 13.7474 6.41748 14.1525C6.41748 19.1888 7.35248 37.1025 24.5012 46.2613C24.8243 46.4478 25.1907 46.546 25.5637 46.546C25.9367 46.546 26.3032 46.4478 26.6262 46.2613C43.6262 37.1238 44.8587 19.2525 44.8375 14.1738C44.8228 13.7455 44.679 13.3316 44.4249 12.9865C44.1709 12.6414 43.8184 12.3812 43.4137 12.24ZM34 27.115H27.625V33.49H23.375V27.115H17V22.865H23.375V16.49H27.625V22.865H34V27.115Z" fill="#E2BD4F"/>
</svg>
